<svg xmlns="http://www.w3.org/2000/svg" xmlns:svg="http://www.w3.org/2000/svg" xmlns:xlink="http://www.w3.org/1999/xlink" id="svg8" width="768" height="432" version="1.1" viewBox="0 0 203.2 114.3"><defs id="defs2"><linearGradient id="linearGradient4786"><stop id="stop4782" offset="0" stop-color="#2c2c2c" stop-opacity=".825"/><stop id="stop4784" offset="1" stop-color="#4d4d4d" stop-opacity="0"/></linearGradient><filter id="filter4734" width="1.077" height="1.068" x="-.038" y="-.034" color-interpolation-filters="sRGB"><feGaussianBlur id="feGaussianBlur4736" stdDeviation="2.454"/></filter><filter id="filter4752" width="1.077" height="1.068" x="-.038" y="-.034" color-interpolation-filters="sRGB"><feGaussianBlur id="feGaussianBlur4754" stdDeviation="3.313"/></filter><filter id="filter4766" width="1.077" height="1.068" x="-.038" y="-.034" color-interpolation-filters="sRGB"><feGaussianBlur id="feGaussianBlur4768" stdDeviation="3.069"/></filter><filter id="filter4776" width="1.077" height="1.068" x="-.038" y="-.034" color-interpolation-filters="sRGB"><feGaussianBlur id="feGaussianBlur4778" stdDeviation="3.069"/></filter><linearGradient id="linearGradient4788" x1="101.143" x2="101.143" y1="314.291" y2="265.863" gradientTransform="matrix(1,0,0,1.3262412,0,-98.288721)" gradientUnits="userSpaceOnUse" xlink:href="#linearGradient4786"/><filter id="filter4752-3" width="1.077" height="1.068" x="-.038" y="-.034" color-interpolation-filters="sRGB"><feGaussianBlur id="feGaussianBlur4754-6" stdDeviation="3.313"/></filter></defs><metadata id="metadata5"/><g id="layer1" transform="translate(0,-182.69998)"><rect id="rect3713-3-3" width="112.657" height="185.532" x="230.221" y="33.993" fill="gray" stroke-width=".548" transform="rotate(31.043586)"/><g id="g878" transform="translate(-4.0090429,5.0781211)"><rect id="rect4770" width="112.657" height="185.532" x="174.444" y="38.242" fill="#4d4d4d" stroke-width=".548" filter="url(#filter4776)" transform="rotate(31.043586)"/><rect id="rect3713-3-5" width="112.657" height="185.532" x="174.444" y="38.242" fill="#999" stroke-width=".548" transform="rotate(31.043586)"/></g><g id="g874"><rect id="rect4756" width="112.657" height="185.532" x="145.425" y="35.12" fill="#666" stroke-width=".548" filter="url(#filter4766)" transform="rotate(31.043586,-2.0844004,-14.969358)"/><rect id="rect3713-3-7" width="112.657" height="185.532" x="138.004" y="38.339" fill="#ccc" stroke-width=".548" transform="rotate(31.043586)"/></g><g id="g870"><rect id="rect4738" width="121.586" height="200.238" x="117.317" y="58.148" fill="#666" stroke-width=".591" filter="url(#filter4752)" transform="rotate(31.043586,-2.0844004,-14.969358)"/><rect id="rect3713-3" width="121.586" height="200.238" x="109.896" y="61.367" fill="#f9f9f9" stroke-width=".591" transform="rotate(31.043586)"/></g><g id="g866"><rect id="rect4738-7" width="121.586" height="200.238" x="117.317" y="58.148" fill="#666" stroke-width=".591" filter="url(#filter4752-3)" transform="rotate(31.043586,-1.5723508,-128.40086)"/><rect id="rect3713-3-53" width="121.586" height="200.238" x="51.328" y="77.349" fill="#999" stroke-width=".591" transform="rotate(31.043586)"/></g><rect id="rect4780" width="215.152" height="49.979" x="-6.147" y="251.297" fill="url(#linearGradient4788)" fill-opacity="1" stroke-width=".45" opacity="1"/><g id="g862"><rect id="rect848" width="90.07" height="148.335" x="29.852" y="92.49" fill="#4d4d4d" stroke-width=".438" filter="url(#filter4734)" opacity="1" transform="rotate(31.043586,0.93322275,-9.1907515)"/><rect id="rect850" width="90.07" height="148.335" x="24.978" y="93.325" fill="#666" stroke-width=".438" transform="rotate(31.043586)"/></g></g></svg>