<svg xmlns="http://www.w3.org/2000/svg" xmlns:svg="http://www.w3.org/2000/svg" xmlns:xlink="http://www.w3.org/1999/xlink" id="svg9113" width="192" height="192" version="1.1" viewBox="0 0 192 192"><defs id="defs9107"><linearGradient id="linearGradient5094" x1="192" x2="192" y1="140.3" y2="332.3" gradientTransform="translate(266.85692,297.64826)" gradientUnits="userSpaceOnUse" xlink:href="#linearGradient5100"/><linearGradient id="linearGradient5100"><stop id="stop5096" offset="0" stop-color="#fbfcfc" stop-opacity=".1"/><stop id="stop5098" offset="1" stop-color="#fbfcfc" stop-opacity="0"/></linearGradient><radialGradient id="radialGradient5715" cx="0" cy="243.209" r="76" fx="0" fy="243.209" gradientTransform="matrix(2.526312,2.526312,-2.5263122,2.5263122,881.27923,-176.47384)" gradientUnits="userSpaceOnUse" xlink:href="#linearGradient5100"/><filter id="filter13488" width="1.28" height="1.21" x="-.14" y="-.105" color-interpolation-filters="sRGB"><feGaussianBlur id="feGaussianBlur13490" stdDeviation="1.4"/></filter><filter id="filter13338" width="1.112" height="1.084" x="-.056" y="-.042" color-interpolation-filters="sRGB"><feGaussianBlur id="feGaussianBlur13340" stdDeviation=".56"/></filter><filter id="filter13052" width="1.077" height="1.127" x="-.039" y="-.064" color-interpolation-filters="sRGB"><feGaussianBlur id="feGaussianBlur13054" stdDeviation="2.44"/></filter><filter id="filter13165" width="1.077" height="1.127" x="-.039" y="-.064" color-interpolation-filters="sRGB"><feGaussianBlur id="feGaussianBlur13167" stdDeviation="2.44"/></filter><linearGradient id="linearGradient14078" x1="80" x2="80" y1="252.3" y2="280.3" gradientTransform="translate(266.85714,297.64826)" gradientUnits="userSpaceOnUse" xlink:href="#linearGradient14074"/><linearGradient id="linearGradient14074"><stop id="stop14070" offset="0" stop-color="#4d6570" stop-opacity="1"/><stop id="stop14072" offset="1" stop-color="#4d6570" stop-opacity=".06"/></linearGradient><filter id="filter12606" width="1.067" height="1.171" x="-.033" y="-.086" color-interpolation-filters="sRGB"><feGaussianBlur id="feGaussianBlur12608" stdDeviation="2"/></filter><filter id="filter13315" width="1.11" height="1.085" x="-.055" y="-.043" color-interpolation-filters="sRGB"><feGaussianBlur id="feGaussianBlur13317" stdDeviation="2.92"/></filter></defs><metadata id="metadata9110"/><g id="layer1" transform="translate(-266.85715,-437.94824)"><path id="path13319" fill="#000" fill-opacity="1" fill-rule="nonzero" stroke="none" stroke-dasharray="none" stroke-dashoffset="0" stroke-linecap="round" stroke-linejoin="miter" stroke-miterlimit="4" stroke-opacity="1" stroke-width=".34" d="m 316.85714,449.94826 c -3.324,0 -6,2.67599 -6,6 v 8 c 0,3.324 2.676,6 6,6 h 14 v 16 h 8 v -16 h 2 c 3.324,0 6,-2.676 6,-6 v -8 c 0,-3.32401 -2.676,-6 -6,-6 z m 68.00001,0 c -3.324,0 -6,2.67599 -6,6 v 8 c 0,3.324 2.676,6 6,6 h 2 v 16 h 8 v -16 h 14 c 3.324,0 6,-2.676 6,-6 v -8 c 0,-3.32401 -2.676,-6 -6,-6 z m -86.00001,108 v 12 l 25.60742,38 c 2.06983,3.58859 5.93583,6 10.39258,6 h 56.00002 c 4.45674,0 8.32274,-2.41141 10.39257,-6 h 0.0117 l 25.59569,-38 v -12 z" clip-rule="nonzero" color="#000" color-interpolation="sRGB" color-interpolation-filters="linearRGB" color-rendering="auto" display="inline" enable-background="accumulate" filter="url(#filter13315)" image-rendering="auto" opacity=".2" overflow="visible" shape-rendering="auto" text-rendering="auto" visibility="visible" style="marker:none"/><path color="#000" style="marker:none" id="path13272-9" fill="#000" fill-opacity="1" fill-rule="nonzero" stroke="none" stroke-dasharray="none" stroke-dashoffset="0" stroke-linecap="round" stroke-linejoin="miter" stroke-miterlimit="4" stroke-opacity="1" stroke-width=".34" d="m 316.85714,445.94826 c -3.324,0 -6,2.67599 -6,6 v 8 c 0,3.324 2.676,6 6,6 h 14 v 16 h 8 v -16 h 2 c 3.324,0 6,-2.676 6,-6 v -8 c 0,-3.32401 -2.676,-6 -6,-6 z m 68.00001,0 c -3.324,0 -6,2.67599 -6,6 v 8 c 0,3.324 2.676,6 6,6 h 2 v 16 h 8 v -16 h 14 c 3.324,0 6,-2.676 6,-6 v -8 c 0,-3.32401 -2.676,-6 -6,-6 z m -86.00001,108 v 12 l 25.60742,38 c 2.06983,3.58859 5.93583,6 10.39258,6 h 56.00002 c 4.45674,0 8.32274,-2.41141 10.39257,-6 h 0.0117 l 25.59569,-38 v -12 z" clip-rule="nonzero" color-interpolation="sRGB" color-interpolation-filters="linearRGB" color-rendering="auto" display="inline" enable-background="accumulate" filter="url(#filter13315)" image-rendering="auto" opacity=".2" overflow="visible" shape-rendering="auto" text-rendering="auto" visibility="visible"/><path id="path13149" fill="#000" fill-opacity="1" fill-rule="nonzero" stroke="none" stroke-dasharray="none" stroke-dashoffset="0" stroke-linecap="round" stroke-linejoin="miter" stroke-miterlimit="4" stroke-opacity="1" stroke-width=".34" d="m 290.85714,553.94826 8,12 25.60743,38 c 2.06982,3.58859 5.93583,6 10.39257,6 h 56.00001 c 4.45675,0 8.32275,-2.41141 10.39258,-6 h 0.0117 l 25.59572,-38 8,-12 z" clip-rule="nonzero" color="#000" color-interpolation="sRGB" color-interpolation-filters="linearRGB" color-rendering="auto" display="inline" enable-background="accumulate" filter="url(#filter12606)" image-rendering="auto" opacity=".2" overflow="visible" shape-rendering="auto" text-rendering="auto" visibility="visible" style="marker:none"/><g id="g13285" transform="translate(266.85714,297.64826)"><path id="path12541" fill="#607d8b" fill-opacity="1" fill-rule="evenodd" stroke="none" stroke-linecap="butt" stroke-linejoin="miter" stroke-opacity="1" stroke-width=".376" d="m 32,116 v 12 l 25.607422,38 c 2.069825,3.58859 5.935831,6 10.392578,6 h 56 c 4.45675,0 8.32275,-2.41141 10.39258,-6 h 0.0117 L 160,128 v -12 z" transform="translate(0,140.3)"/></g><rect id="rect11626" width="8" height="28" x="330.857" y="453.948" fill="#263238" fill-opacity="1" fill-rule="nonzero" stroke="none" stroke-dasharray="none" stroke-dashoffset="0" stroke-linecap="round" stroke-linejoin="miter" stroke-miterlimit="4" stroke-opacity="1" stroke-width="6" clip-rule="nonzero" color="#000" color-interpolation="sRGB" color-interpolation-filters="linearRGB" color-rendering="auto" display="inline" enable-background="accumulate" image-rendering="auto" opacity="1" overflow="visible" shape-rendering="auto" text-rendering="auto" visibility="visible" style="marker:none"/><rect id="rect12099" width="8" height="28" x="386.857" y="453.948" fill="#263238" fill-opacity="1" fill-rule="nonzero" stroke="none" stroke-dasharray="none" stroke-dashoffset="0" stroke-linecap="round" stroke-linejoin="miter" stroke-miterlimit="4" stroke-opacity="1" stroke-width="6" clip-rule="nonzero" color="#000" color-interpolation="sRGB" color-interpolation-filters="linearRGB" color-rendering="auto" display="inline" enable-background="accumulate" image-rendering="auto" opacity="1" overflow="visible" shape-rendering="auto" text-rendering="auto" visibility="visible" style="marker:none"/><path id="path3138" fill="#4d6570" fill-opacity="1" fill-rule="nonzero" stroke="none" stroke-dasharray="none" stroke-dashoffset="0" stroke-linecap="round" stroke-linejoin="miter" stroke-miterlimit="4" stroke-opacity="1" stroke-width=".34" d="m 298.85714,564.94826 v 1 l 25.60743,38 c 2.06982,3.58859 5.93583,6 10.39257,6 h 56.00001 c 4.45675,0 8.32275,-2.41141 10.39258,-6 h 0.0117 l 25.59572,-38 v -1 l -25.5957,38 h -0.0117 c -2.06983,3.58859 -5.93583,6 -10.39258,6 h -56.00003 c -4.45674,0 -8.32275,-2.41141 -10.39257,-6 z" clip-rule="nonzero" color="#000" color-interpolation="sRGB" color-interpolation-filters="linearRGB" color-rendering="auto" display="inline" enable-background="accumulate" image-rendering="auto" opacity="1" overflow="visible" shape-rendering="auto" text-rendering="auto" visibility="visible" style="marker:none"/><rect id="rect11624" width="20" height="36" x="445.948" y="-346.857" fill="#607d8b" fill-opacity="1" fill-rule="nonzero" stroke="none" stroke-dasharray="none" stroke-dashoffset="0" stroke-linecap="round" stroke-linejoin="miter" stroke-miterlimit="4" stroke-opacity="1" stroke-width=".34" clip-rule="nonzero" color="#000" color-interpolation="sRGB" color-interpolation-filters="linearRGB" color-rendering="auto" display="inline" enable-background="accumulate" image-rendering="auto" opacity="1" overflow="visible" rx="6" ry="6" shape-rendering="auto" text-rendering="auto" transform="rotate(90)" visibility="visible" style="marker:none"/><rect clip-rule="nonzero" style="marker:none" id="rect12097" width="20" height="36" x="445.948" y="-414.857" fill="#607d8b" fill-opacity="1" fill-rule="nonzero" stroke="none" stroke-dasharray="none" stroke-dashoffset="0" stroke-linecap="round" stroke-linejoin="miter" stroke-miterlimit="4" stroke-opacity="1" stroke-width=".34" color="#000" color-interpolation="sRGB" color-interpolation-filters="linearRGB" color-rendering="auto" display="inline" enable-background="accumulate" image-rendering="auto" opacity="1" overflow="visible" rx="6" ry="6" shape-rendering="auto" text-rendering="auto" transform="rotate(90)" visibility="visible"/><path id="rect12496" fill="#4d6570" fill-opacity="1" fill-rule="nonzero" stroke="none" stroke-dasharray="none" stroke-dashoffset="0" stroke-linecap="round" stroke-linejoin="miter" stroke-miterlimit="4" stroke-opacity="1" stroke-width=".34" d="m 310.85714,458.94826 v 1 c 0,3.324 2.676,6 6,6 h 24 c 3.324,0 6,-2.676 6,-6 v -1 c 0,3.324 -2.676,6 -6,6 h -24 c -3.324,0 -6,-2.676 -6,-6 z" clip-rule="nonzero" color="#000" color-interpolation="sRGB" color-interpolation-filters="linearRGB" color-rendering="auto" display="inline" enable-background="accumulate" image-rendering="auto" opacity="1" overflow="visible" shape-rendering="auto" text-rendering="auto" visibility="visible" style="marker:none"/><path id="path12514" fill="#4d6570" fill-opacity="1" fill-rule="nonzero" stroke="none" stroke-dasharray="none" stroke-dashoffset="0" stroke-linecap="round" stroke-linejoin="miter" stroke-miterlimit="4" stroke-opacity="1" stroke-width=".34" d="m 378.85715,458.94826 v 1 c 0,3.324 2.676,6 6,6 h 24 c 3.324,0 6,-2.676 6,-6 v -1 c 0,3.324 -2.676,6 -6,6 h -24 c -3.324,0 -6,-2.676 -6,-6 z" clip-rule="nonzero" color="#000" color-interpolation="sRGB" color-interpolation-filters="linearRGB" color-rendering="auto" display="inline" enable-background="accumulate" image-rendering="auto" opacity="1" overflow="visible" shape-rendering="auto" text-rendering="auto" visibility="visible" style="marker:none"/><path id="path12516" fill="#8097a2" fill-opacity="1" fill-rule="nonzero" stroke="none" stroke-dasharray="none" stroke-dashoffset="0" stroke-linecap="round" stroke-linejoin="miter" stroke-miterlimit="4" stroke-opacity="1" stroke-width=".34" d="m 316.85714,445.94826 c -3.324,0 -6,2.676 -6,6 v 1 c 0,-3.324 2.676,-6 6,-6 h 24 c 3.324,0 6,2.676 6,6 v -1 c 0,-3.324 -2.676,-6 -6,-6 z" clip-rule="nonzero" color="#000" color-interpolation="sRGB" color-interpolation-filters="linearRGB" color-rendering="auto" display="inline" enable-background="accumulate" image-rendering="auto" opacity="1" overflow="visible" shape-rendering="auto" text-rendering="auto" visibility="visible" style="marker:none"/><path id="path12518" fill="#8097a2" fill-opacity="1" fill-rule="nonzero" stroke="none" stroke-dasharray="none" stroke-dashoffset="0" stroke-linecap="round" stroke-linejoin="miter" stroke-miterlimit="4" stroke-opacity="1" stroke-width=".34" d="m 384.85715,445.94826 c -3.324,0 -6,2.676 -6,6 v 1 c 0,-3.324 2.676,-6 6,-6 h 24 c 3.324,0 6,2.676 6,6 v -1 c 0,-3.324 -2.676,-6 -6,-6 z" clip-rule="nonzero" color="#000" color-interpolation="sRGB" color-interpolation-filters="linearRGB" color-rendering="auto" display="inline" enable-background="accumulate" image-rendering="auto" opacity="1" overflow="visible" shape-rendering="auto" text-rendering="auto" visibility="visible" style="marker:none"/><path id="path14047" fill="url(#linearGradient14078)" fill-opacity="1" fill-rule="evenodd" stroke="none" stroke-linecap="butt" stroke-linejoin="miter" stroke-opacity="1" stroke-width=".376" d="m 298.85715,553.94826 v 12 l 25.60742,38 c 2.06983,3.58859 5.93583,6 10.39258,6 h 56 c 4.45675,0 8.32275,-2.41141 10.39258,-6 h 0.0117 l 25.59572,-38 v -12 z"/><g id="g13270" transform="translate(266.85714,297.64826)"><rect id="rect13038" width="92" height="152" x="180.3" y="-172" fill="#000" fill-opacity="1" fill-rule="nonzero" stroke="none" stroke-dasharray="none" stroke-dashoffset="0" stroke-linecap="round" stroke-linejoin="miter" stroke-miterlimit="4" stroke-opacity="1" stroke-width=".34" clip-rule="nonzero" color="#000" color-interpolation="sRGB" color-interpolation-filters="linearRGB" color-rendering="auto" display="inline" enable-background="accumulate" filter="url(#filter13052)" image-rendering="auto" opacity=".2" overflow="visible" rx="12" ry="12" shape-rendering="auto" text-rendering="auto" transform="rotate(90)" visibility="visible" style="marker:none"/><rect clip-rule="nonzero" style="marker:none" id="rect13151" width="92" height="152" x="176.3" y="-172" fill="#000" fill-opacity="1" fill-rule="nonzero" stroke="none" stroke-dasharray="none" stroke-dashoffset="0" stroke-linecap="round" stroke-linejoin="miter" stroke-miterlimit="4" stroke-opacity="1" stroke-width=".34" color="#000" color-interpolation="sRGB" color-interpolation-filters="linearRGB" color-rendering="auto" display="inline" enable-background="accumulate" filter="url(#filter13165)" image-rendering="auto" opacity=".2" overflow="visible" rx="12" shape-rendering="auto" text-rendering="auto" transform="rotate(90)" visibility="visible"/><rect id="rect11599" width="92" height="152" x="176.3" y="-172" fill="#ff1744" fill-opacity="1" fill-rule="nonzero" stroke="none" stroke-dasharray="none" stroke-dashoffset="0" stroke-linecap="round" stroke-linejoin="miter" stroke-miterlimit="4" stroke-opacity="1" stroke-width=".34" clip-rule="nonzero" color="#000" color-interpolation="sRGB" color-interpolation-filters="linearRGB" color-rendering="auto" display="inline" enable-background="accumulate" image-rendering="auto" opacity="1" overflow="visible" rx="12" shape-rendering="auto" text-rendering="auto" transform="rotate(90)" visibility="visible" style="marker:none"/><path id="path11029-3" fill="none" fill-rule="evenodd" stroke="#fbe9e7" stroke-dasharray="none" stroke-linecap="round" stroke-linejoin="miter" stroke-miterlimit="4" stroke-opacity="1" stroke-width="6" d="m 36,192.3 60,32 60,-32"/><path color="#000" style="marker:none" id="rect12531" fill="#ff4569" fill-opacity="1" fill-rule="nonzero" stroke="none" stroke-dasharray="none" stroke-dashoffset="0" stroke-linecap="round" stroke-linejoin="miter" stroke-miterlimit="4" stroke-opacity="1" stroke-width=".34" d="m 32,36 c -6.648001,0 -12,5.352 -12,12 v 1 c 0,-6.648 5.351999,-12 12,-12 h 128 c 6.648,0 12,5.352 12,12 v -1 c 0,-6.648 -5.352,-12 -12,-12 z" clip-rule="nonzero" color-interpolation="sRGB" color-interpolation-filters="linearRGB" color-rendering="auto" display="inline" enable-background="accumulate" image-rendering="auto" opacity="1" overflow="visible" shape-rendering="auto" text-rendering="auto" transform="translate(0,140.3)" visibility="visible"/><path color="#000" style="marker:none" id="path12537" fill="#d81a3d" fill-opacity="1" fill-rule="nonzero" stroke="none" stroke-dasharray="none" stroke-dashoffset="0" stroke-linecap="round" stroke-linejoin="miter" stroke-miterlimit="4" stroke-opacity="1" stroke-width=".34" d="m 20,115 v 1 c 0,6.648 5.351999,12 12,12 h 128 c 6.648,0 12,-5.352 12,-12 v -1 c 0,6.648 -5.352,12 -12,12 H 32 c -6.648001,0 -12,-5.352 -12,-12 z" clip-rule="nonzero" color-interpolation="sRGB" color-interpolation-filters="linearRGB" color-rendering="auto" display="inline" enable-background="accumulate" image-rendering="auto" opacity="1" overflow="visible" shape-rendering="auto" text-rendering="auto" transform="translate(0,140.3)" visibility="visible"/></g><g id="g13464" transform="translate(266.85714,297.64826)"><path color="#000" style="marker:none" id="path13466" fill="#000" fill-opacity="1" fill-rule="nonzero" stroke="none" stroke-dasharray="none" stroke-dashoffset="0" stroke-linecap="round" stroke-linejoin="miter" stroke-miterlimit="4" stroke-opacity="1" stroke-width="9" d="m 90,296.3 c -3.324,0 -6,2.676 -6,6 v 12 c 0,0.27298 0.02557,0.53962 0.06055,0.80273 2.55e-4,0.002 -2.57e-4,0.004 0,0.006 A 11.999994,11.999994 0 0 0 84,316.3 a 11.999994,11.999994 0 0 0 12,12 11.999994,11.999994 0 0 0 12,-12 11.999994,11.999994 0 0 0 -0.0664,-1.15234 C 107.9726,314.8702 108,314.58855 108,314.3 v -12 c 0,-3.324 -2.676,-6 -6,-6 z" clip-rule="nonzero" color-interpolation="sRGB" color-interpolation-filters="linearRGB" color-rendering="auto" display="inline" enable-background="accumulate" filter="url(#filter13488)" image-rendering="auto" opacity=".2" overflow="visible" shape-rendering="auto" text-rendering="auto" visibility="visible"/><path color="#000" style="marker:none" id="circle13321" fill="#000" fill-opacity="1" fill-rule="nonzero" stroke="none" stroke-dasharray="none" stroke-dashoffset="0" stroke-linecap="round" stroke-linejoin="miter" stroke-miterlimit="4" stroke-opacity="1" stroke-width="9" d="m 90,152 c -3.324,0 -6,2.676 -6,6 v 12 c 0,0.27298 0.02557,0.53962 0.06055,0.80273 2.55e-4,0.002 -2.57e-4,0.004 0,0.006 A 11.999994,11.999994 0 0 0 84,172 a 11.999994,11.999994 0 0 0 12,12 11.999994,11.999994 0 0 0 12,-12 11.999994,11.999994 0 0 0 -0.0664,-1.15234 C 107.9726,170.5702 108,170.28855 108,170 v -12 c 0,-3.324 -2.676,-6 -6,-6 z" clip-rule="nonzero" color-interpolation="sRGB" color-interpolation-filters="linearRGB" color-rendering="auto" display="inline" enable-background="accumulate" filter="url(#filter13338)" image-rendering="auto" opacity=".2" overflow="visible" shape-rendering="auto" text-rendering="auto" transform="translate(0,140.3)" visibility="visible"/><rect id="rect11618" width="24" height="24" x="292.3" y="-108" fill="#263238" fill-opacity="1" fill-rule="nonzero" stroke="none" stroke-dasharray="none" stroke-dashoffset="0" stroke-linecap="round" stroke-linejoin="miter" stroke-miterlimit="4" stroke-opacity="1" stroke-width=".34" clip-rule="nonzero" color="#000" color-interpolation="sRGB" color-interpolation-filters="linearRGB" color-rendering="auto" display="inline" enable-background="accumulate" image-rendering="auto" opacity="1" overflow="visible" rx="6" ry="6" shape-rendering="auto" text-rendering="auto" transform="rotate(90)" visibility="visible" style="marker:none"/><circle id="path11616" cx="96" cy="312.3" r="12" fill="#263238" fill-opacity="1" fill-rule="nonzero" stroke="none" stroke-dasharray="none" stroke-dashoffset="0" stroke-linecap="round" stroke-linejoin="miter" stroke-miterlimit="4" stroke-opacity="1" stroke-width="9" clip-rule="nonzero" color="#000" color-interpolation="sRGB" color-interpolation-filters="linearRGB" color-rendering="auto" display="inline" enable-background="accumulate" image-rendering="auto" opacity="1" overflow="visible" shape-rendering="auto" text-rendering="auto" visibility="visible" style="marker:none"/><path color="#000" style="marker:none" id="rect12574" fill="#37474f" fill-opacity="1" fill-rule="nonzero" stroke="none" stroke-dasharray="none" stroke-dashoffset="0" stroke-linecap="round" stroke-linejoin="miter" stroke-miterlimit="4" stroke-opacity="1" stroke-width=".34" d="m 90,152 c -3.324,0 -6,2.676 -6,6 v 1 c 0,-3.324 2.676,-6 6,-6 h 12 c 3.324,0 6,2.676 6,6 v -1 c 0,-3.324 -2.676,-6 -6,-6 z" clip-rule="nonzero" color-interpolation="sRGB" color-interpolation-filters="linearRGB" color-rendering="auto" display="inline" enable-background="accumulate" image-rendering="auto" opacity="1" overflow="visible" shape-rendering="auto" text-rendering="auto" transform="translate(0,140.3)" visibility="visible"/><path color="#000" style="marker:none" id="circle12577" fill="#1a252a" fill-opacity="1" fill-rule="nonzero" stroke="none" stroke-dasharray="none" stroke-dashoffset="0" stroke-linecap="round" stroke-linejoin="miter" stroke-miterlimit="4" stroke-opacity="1" stroke-width="9" d="M 84.021484,171.42969 A 11.999994,11.999994 0 0 0 84,172 11.999994,11.999994 0 0 0 96,184 11.999994,11.999994 0 0 0 108,172 11.999994,11.999994 0 0 0 107.9805,171.58594 11.999994,11.999994 0 0 1 96,183 11.999994,11.999994 0 0 1 84.021484,171.42969 Z" clip-rule="nonzero" color-interpolation="sRGB" color-interpolation-filters="linearRGB" color-rendering="auto" display="inline" enable-background="accumulate" image-rendering="auto" opacity="1" overflow="visible" shape-rendering="auto" text-rendering="auto" transform="translate(0,140.3)" visibility="visible"/></g><path id="path13540-7" fill="url(#radialGradient5715)" fill-opacity="1" fill-rule="evenodd" stroke="none" stroke-linecap="butt" stroke-linejoin="miter" stroke-opacity="1" stroke-width=".376" d="m 316.85692,445.94826 c -3.324,0 -6,2.676 -6,6 v 8 c 0,3.324 2.676,6 6,6 h 14 v 8 h -32 c -6.648,0 -12,5.352 -12,12 v 68 c 0,6.648 5.352,12 12,12 l 25.60743,38 c 2.06983,3.58859 5.93582,6 10.39257,6 h 16 a 11.999994,11.999994 0 0 0 12,12 11.999994,11.999994 0 0 0 11.99806,-12 h 16.00194 c 4.45675,0 8.32275,-2.41141 10.39258,-6 h 0.01 l 25.59765,-38 c 6.64709,-10e-4 12,-5.35265 12,-12 v -68 c 0,-6.648 -5.35395,-12 -12.00195,-12 h -31.99805 v -8 h 13.99805 c 3.324,0 6.00195,-2.676 6.00195,-6 v -8 c 0,-3.324 -2.67795,-6 -6.00195,-6 h -23.99804 c -3.324,0 -6,2.676 -6,6 v 8 c 0,3.324 2.676,6 6,6 h 2 v 8 h -48.00001 v -8 h 1.99805 c 3.324,0 6.00195,-2.676 6.00195,-6 v -8 c 0,-3.324 -2.67795,-6 -6.00195,-6 z"/><path id="path5092" fill="url(#linearGradient5094)" fill-opacity="1" fill-rule="evenodd" stroke="none" stroke-linecap="butt" stroke-linejoin="miter" stroke-opacity="1" stroke-width=".376" d="m 316.85692,445.94826 c -3.324,0 -6,2.676 -6,6 v 8 c 0,3.324 2.676,6 6,6 h 14 v 8 h -32 c -6.648,0 -12,5.352 -12,12 v 68 c 0,6.648 5.352,12 12,12 l 25.60743,38 c 2.06983,3.58859 5.93582,6 10.39257,6 h 16 a 11.999994,11.999994 0 0 0 12,12 11.999994,11.999994 0 0 0 11.99806,-12 h 16.00194 c 4.45675,0 8.32275,-2.41141 10.39258,-6 h 0.01 l 25.59765,-38 c 6.64709,-10e-4 12,-5.35265 12,-12 v -68 c 0,-6.648 -5.35395,-12 -12.00195,-12 h -31.99805 v -8 h 13.99805 c 3.324,0 6.00195,-2.676 6.00195,-6 v -8 c 0,-3.324 -2.67795,-6 -6.00195,-6 h -23.99804 c -3.324,0 -6,2.676 -6,6 v 8 c 0,3.324 2.676,6 6,6 h 2 v 8 h -48.00001 v -8 h 1.99805 c 3.324,0 6.00195,-2.676 6.00195,-6 v -8 c 0,-3.324 -2.67795,-6 -6.00195,-6 z"/></g></svg>